<svg viewBox="0 0 659.71 83.26" xmlns="http://www.w3.org/2000/svg" xmlns:xlink="http://www.w3.org/1999/xlink" id="_Шар_1" overflow="hidden"><defs></defs><path d="M42.24 78.1C42.57 78.08 42.96 78.17 43.22 78.02 44.09 77.53 44.99 77.4 46.06 77.66 46.23 77.26 46.42 76.89 46.55 76.51 47.42 74.11 48.27 71.7 49.14 69.3 49.35 68.72 49.42 68.25 49.03 67.65 48.37 66.64 48.44 65.54 49.19 64.55 49.86 63.66 51.08 63.3 52.22 63.68 53.35 64.05 53.96 64.9 54.06 66.07 54.1 66.5 54.08 66.89 54.48 67.2 56.82 69.01 59.14 70.84 61.52 72.7 63.15 71.23 64.77 71.16 66.43 72.66 67.15 72.14 67.84 71.64 68.53 71.15 68.58 71.19 68.63 71.23 68.68 71.27 68.38 71.55 68.08 71.84 67.78 72.12 67.43 72.43 67.07 72.73 66.69 73.07 67.1 74.55 67.01 75.91 65.61 76.82 64.26 77.7 62.98 77.32 61.81 76.43 60.56 77.04 59.38 77.64 58.18 78.2 55.12 79.62 51.92 80.62 48.6 81.19 48.05 81.29 47.7 81.52 47.36 81.97 46.19 83.55 44.34 83.71 42.9 82.36 42.44 81.93 41.99 81.8 41.41 81.8 34.95 81.84 28.87 80.31 23.1 77.49 22.67 77.28 22.12 77.2 21.64 77.23 19.83 77.34 18.42 76.54 17.8 74.85 17.58 74.25 17.25 73.85 16.76 73.47 10.99 69.02 6.74 63.44 4.01 56.74 3.73 56.06 3.41 55.66 2.64 55.44 0.01 54.67-0.84 51.63 1.01 49.61 1.54 49.04 1.69 48.52 1.58 47.8 0.76 42.65 1.05 37.54 2.31 32.49 2.45 31.91 2.35 31.47 2.02 30.95 0.6 28.73 1.53 26.26 4.09 25.46 4.64 25.29 4.96 25.04 5.2 24.54 6.37 22.11 7.8 19.84 9.47 17.71 9.8 17.28 9.99 16.91 9.74 16.33 9.14 14.9 9.38 13.56 10.49 12.45 11.64 11.3 13.01 11.07 14.53 11.64 14.69 11.7 14.85 11.74 14.99 11.79 16.3 10.83 17.55 9.85 18.87 8.97 22.97 6.2 27.45 4.28 32.29 3.16 32.93 3.01 33.29 2.74 33.59 2.13 34.79-0.33 37.86-0.72 39.68 1.38 40.16 1.94 40.63 2.13 41.32 2.12 44.96 2.05 48.54 2.56 52.06 3.47 52.59 3.61 53.03 3.59 53.55 3.42 54.82 2.99 55.74 3.31 56.44 4.42 56.74 4.89 57.09 5.17 57.58 5.37 61.46 7.02 64.96 9.23 68.1 12.01 68.6 12.45 69 12.64 69.69 12.35 70.93 11.83 72.07 12.16 72.99 13.12 73.96 14.13 74.01 15.3 73.53 16.56 73.4 16.9 73.38 17.28 73.31 17.63L73.34 17.6C73.01 17.67 72.66 17.68 72.36 17.81 70.25 18.68 68.9 18.2 67.78 16.16 67.74 16.09 67.67 16.04 67.5 15.86 62.88 16.23 58.17 16.6 53.63 16.96 52.88 18.2 52.21 19.3 51.38 20.68 51.65 21.56 52.01 22.77 52.4 24.03 52.85 24.07 53.27 24.06 53.68 24.14 54.95 24.38 55.77 25.51 55.63 26.75 55.49 27.94 54.45 28.82 53.22 28.79 51.98 28.76 51.03 27.87 50.92 26.63 50.84 25.75 51.28 25.08 51.97 24.38 51.4 23.36 50.82 22.33 50.25 21.3 49.98 20.82 49.53 20.93 49.11 20.93 47.89 20.94 46.82 20.57 45.95 19.71 44.8 18.55 44.38 17.2 44.82 15.62 44.94 15.17 45.14 14.74 45.35 14.17 43.29 11.72 41.17 9.22 39.19 6.86 37.87 7 36.73 7.13 35.33 7.28 33.91 10.45 32.39 13.86 30.85 17.3 31.04 17.63 31.25 17.95 31.42 18.29 32.29 20.03 31.54 22.02 29.76 22.75 27.96 23.48 25.93 22.62 25.41 20.76 25.16 19.86 24.7 19.45 23.87 19.14 21.45 18.26 19.06 17.31 16.63 16.37 16.26 16.8 15.95 17.2 15.6 17.56 14.89 18.27 13.98 18.55 13.01 18.54 12.5 18.54 12.22 18.73 11.94 19.09 10.39 21.14 9.04 23.31 7.97 25.65 7.84 25.95 7.78 26.45 7.94 26.69 8.9 28.13 8.78 29.57 8.04 31.11 9.66 33.2 11.28 35.28 12.87 37.32 14.81 36.9 15.78 37.17 16.41 38.22 17.05 39.3 16.81 40.22 15.49 41.65 15.58 41.9 15.66 42.18 15.79 42.44 18.12 47.56 20.46 52.67 22.78 57.8 23.12 58.55 23.49 58.99 24.45 59.07 26.54 59.24 28.05 61.33 27.58 63.4 27.38 64.28 27.66 64.71 28.24 65.24 32.6 69.12 36.93 73.01 41.26 76.91 41.66 77.27 41.97 77.74 42.32 78.15 36.94 74.06 31.55 69.98 26.2 65.92 25.39 66.19 24.67 66.43 23.87 66.69 23.53 67.88 23.19 69.1 22.83 70.37 24.65 71.44 25.12 73.06 24.76 74.96 30.25 77.86 35.97 79.47 42.16 79.75 42.16 79.13 43.08 78.72 42.28 78.11M12.96 41.58C10.84 44.36 8.76 47.11 6.66 49.87 7.46 51.19 7.39 52.51 6.91 53.87 7.18 54.02 7.39 54.17 7.62 54.27 11.83 56.09 16.05 57.91 20.26 59.73 20.42 59.8 20.57 59.87 20.74 59.91 21.22 60.02 21.47 59.78 21.37 59.29 21.32 59.04 21.21 58.81 21.12 58.57 19.86 54.96 18.6 51.35 17.34 47.75 16.64 45.75 15.92 43.76 15.21 41.76 14.47 41.71 13.79 41.65 12.97 41.59M33.4 5.16C33.24 5.19 33.07 5.21 32.91 5.25 27.29 6.72 22.27 9.32 17.78 12.95 16.81 13.73 16.49 14.54 16.87 15.79 19.61 16.44 22.4 17.1 25.19 17.79 25.66 17.9 25.92 17.69 26.2 17.41 26.77 16.83 27.5 16.53 28.29 16.52 29 16.52 29.37 16.22 29.7 15.66 31.32 12.95 32.97 10.27 34.6 7.57 34.75 7.33 34.85 7.06 34.95 6.84 34.4 6.24 33.92 5.71 33.41 5.16M51.12 12.83C51.66 13.41 52.18 13.78 52.45 14.29 52.86 15.04 53.44 15.21 54.23 15.22 57.33 15.27 60.42 15.39 63.52 15.46 64.84 15.49 66.16 15.46 67.43 15.46 67.71 14.61 67.98 13.82 68.27 12.96 64.83 10.12 61 7.93 56.88 6.44 56.28 6.93 55.84 7.44 55.28 7.69 54.72 7.93 54.04 7.91 53.38 8 52.63 9.6 51.87 11.22 51.12 12.83M21.91 69.8C22.02 68.71 22.15 67.5 22.28 66.27 20.34 65.24 19.71 63.63 20.04 61.7 17.09 59.74 7.73 54.74 6.79 54.64 9.31 61.12 13.25 66.52 18.52 70.79 19.74 70.43 20.76 70.14 21.91 69.8M47.93 79.55C52.63 79.09 57.04 77.8 61.22 75.75L61.22 72.97C58.93 71.69 56.59 70.41 54.29 69.08 53.55 68.65 52.93 68.46 52.04 68.82 51.42 69.07 51.03 69.33 50.75 69.89 50.27 70.84 49.75 71.77 49.25 72.71 48.35 74.4 47.45 76.09 46.57 77.75 47.03 78.35 47.44 78.89 47.95 79.56M6.94 32.2C5.78 32.2 5.33 32.72 5.13 33.7 4.17 38.38 4.04 43.06 4.88 47.77 4.93 48.07 5.08 48.35 5.24 48.81 7.8 46.18 10.2 43.7 12.64 41.18 11.68 39.94 11.85 38.75 12.61 37.56 10.66 35.71 8.76 33.92 6.94 32.2M51.7 4.92C48.14 4.15 44.39 3.68 40.65 4.06 40.22 4.9 39.86 5.61 39.44 6.43 41.81 8.61 44.23 10.83 46.52 12.93 47.43 12.73 48.15 12.6 48.85 12.42 49.16 12.34 49.55 12.24 49.72 12.02 50.84 10.58 51.92 9.1 52.86 7.83 52.45 6.82 52.13 6.01 51.7 4.92" fill="#FFFFFF"/><path d="M646.97 46.56C642.33 46.56 639.03 44.09 639.03 40.14 639.03 36.19 641.98 33.81 646.97 33.81L656.3 33.81 656.3 46.56 646.97 46.56ZM634.39 61.08 638.55 61.08 647.57 49.46 656.29 49.46 656.29 61.08 659.71 61.08 659.71 30.73 646.74 30.73C642.84 30.73 639.76 31.94 637.89 33.8 636.37 35.27 635.59 37.53 635.59 39.87 635.59 44.95 639.01 48.02 643.87 48.89L634.37 61.08ZM624.1 61.08 627.52 61.08 627.52 30.73 624.1 30.73 624.1 61.08ZM597.78 61.08 601.2 61.08 601.2 33.84 617.16 33.84 617.16 30.72 597.78 30.72 597.78 61.07ZM574.49 58.44C567.55 58.44 562.52 52.8 562.52 45.9 562.52 39 567.47 33.36 574.4 33.36 581.33 33.36 586.38 39 586.38 45.9 586.38 52.8 581.43 58.44 574.49 58.44M574.4 61.6C583.64 61.6 589.93 54.28 589.93 45.9 589.93 37.52 583.73 30.2 574.49 30.2 565.25 30.2 558.97 37.53 558.97 45.9 558.97 54.27 565.17 61.6 574.4 61.6M525.85 61.43C530.53 61.43 534.87 58.44 534.87 37.14L534.87 33.84 547.8 33.84 547.8 61.08 551.22 61.08 551.22 30.73 531.58 30.73 531.58 36.23C531.58 56.92 527.63 58.35 525.29 58.35 524.33 58.35 523.08 58.13 522.6 57.92L521.91 60.69C522.69 60.99 524.51 61.43 525.86 61.43M503.99 58.44C497.05 58.44 492.02 52.8 492.02 45.9 492.02 39 496.97 33.36 503.91 33.36 510.85 33.36 515.88 39 515.88 45.9 515.88 52.8 510.93 58.44 503.99 58.44M503.91 61.6C513.15 61.6 519.43 54.28 519.43 45.9 519.43 37.52 513.23 30.2 503.99 30.2 494.75 30.2 488.47 37.53 488.47 45.9 488.47 54.27 494.67 61.6 503.91 61.6M456.27 61.08 459.69 61.08 459.69 47.42 477.22 47.42 477.22 61.08 480.64 61.08 480.64 30.73 477.22 30.73 477.22 44.22 459.69 44.22 459.69 30.73 456.27 30.73 456.27 61.08ZM421.95 61.08 425.9 61.08 435.62 48.03 445.34 61.08 449.41 61.08 437.74 45.55 448.97 30.72 444.98 30.72 435.74 43.12 426.42 30.72 422.39 30.72 433.62 45.59 421.95 61.07ZM393.77 61.08 415.92 61.08 415.92 57.96 397.18 57.96 397.18 47.33 413.75 47.33 413.75 44.21 397.18 44.21 397.18 33.84 415.7 33.84 415.7 30.72 393.76 30.72 393.76 61.07ZM373.18 61.08 376.64 61.08 376.64 33.84 386.83 33.84 386.83 30.72 362.98 30.72 362.98 33.84 373.17 33.84 373.17 61.08ZM331.37 36.75 345.9 36.75 345.9 30.73 324.7 30.73 324.7 61.08 331.37 61.08 331.37 36.75ZM290.83 61.08 297.5 61.08 297.5 48.89 309.82 48.89 309.82 61.08 316.49 61.08 316.49 30.73 309.82 30.73 309.82 42.74 297.5 42.74 297.5 30.73 290.83 30.73 290.83 61.08ZM282.63 30.73 276.43 30.73 263.07 50.63 263.07 30.73 256.48 30.73 256.48 61.08 262.76 61.08 276.04 41.18 276.04 61.08 282.63 61.08 282.63 30.73ZM240.39 36.75 240.39 55.06 228.68 55.06C230.42 50.85 231.41 46.25 231.41 39.83L231.41 36.75 240.39 36.75ZM218.79 67.41 224.82 67.41 225.25 61.08 244.24 61.08 244.24 67.41 249.83 67.41 250.7 55.06 247.05 55.06 247.05 30.73 224.98 30.73 224.98 34.28C224.98 44.65 223.9 49.81 221.64 55.06L218.78 55.06 218.78 67.41ZM187.99 61.08 194.66 61.08 194.66 48.89 206.98 48.89 206.98 61.08 213.65 61.08 213.65 30.73 206.98 30.73 206.98 42.74 194.66 42.74 194.66 30.73 187.99 30.73 187.99 61.08ZM165.31 55.45C159.93 55.45 156.11 51.11 156.11 45.9 156.11 40.69 159.84 36.36 165.22 36.36 170.6 36.36 174.42 40.7 174.42 45.9 174.42 51.1 170.69 55.45 165.31 55.45M165.23 61.6C174.6 61.6 181.4 54.54 181.4 45.9 181.4 37.26 174.68 30.2 165.31 30.2 155.94 30.2 149.14 37.26 149.14 45.9 149.14 54.54 155.86 61.6 165.23 61.6M132.8 47.59C135.97 47.59 137.49 48.85 137.49 51.19 137.49 53.84 135.97 55.05 132.85 55.05L125.47 55.05 125.47 47.58 132.8 47.58ZM125.47 36.75 142.08 36.75 142.08 30.73 118.79 30.73 118.79 61.08 132.84 61.08C139.87 61.08 144.16 57.66 144.16 51.46 144.16 45.78 140.35 42.05 133.49 42.05L125.46 42.05 125.46 36.75ZM98.48 50.8 111.84 50.8 111.84 44.47 98.48 44.47 98.48 50.8ZM76.14 55.45C70.76 55.45 66.94 51.11 66.94 45.9 66.94 40.69 70.67 36.36 76.05 36.36 81.43 36.36 85.25 40.7 85.25 45.9 85.25 51.1 81.52 55.45 76.14 55.45M76.05 61.6C85.42 61.6 92.23 54.54 92.23 45.9 92.23 37.26 85.51 30.2 76.14 30.2 66.77 30.2 59.96 37.26 59.96 45.9 59.96 54.54 66.68 61.6 76.05 61.6M30.82 61.08 37.49 61.08 37.49 51.8 41 48.16 50.41 61.08 58.43 61.08 45.51 43.6 57.87 30.72 49.8 30.72 37.48 43.99 37.48 30.72 30.81 30.72 30.81 61.07Z" fill="#FFFFFF"/></svg>